<svg width="14" height="14" viewBox="0 0 14 14" fill="none" xmlns="http://www.w3.org/2000/svg">
<path fill-rule="evenodd" clip-rule="evenodd" d="M4.375 0.875C4.61662 0.875 4.8125 1.07088 4.8125 1.3125V1.75H9.1875V1.3125C9.1875 1.07088 9.38338 0.875 9.625 0.875C9.86662 0.875 10.0625 1.07088 10.0625 1.3125V1.75H11.375C11.8582 1.75 12.25 2.14175 12.25 2.625V11.375C12.25 11.8582 11.8582 12.25 11.375 12.25H2.625C2.14175 12.25 1.75 11.8582 1.75 11.375V2.625C1.75 2.14175 2.14175 1.75 2.625 1.75H3.9375V1.3125C3.9375 1.07088 4.13338 0.875 4.375 0.875ZM3.9375 2.625H2.625V4.375H11.375V2.625H10.0625V3.0625C10.0625 3.30412 9.86662 3.5 9.625 3.5C9.38338 3.5 9.1875 3.30412 9.1875 3.0625V2.625H4.8125V3.0625C4.8125 3.30412 4.61662 3.5 4.375 3.5C4.13338 3.5 3.9375 3.30412 3.9375 3.0625V2.625ZM11.375 5.25H2.625V11.375H11.375V5.25Z" fill="#585874"/>
</svg>
