<svg width="18" height="18" viewBox="0 0 18 18" fill="none" xmlns="http://www.w3.org/2000/svg">
<path fill-rule="evenodd" clip-rule="evenodd" d="M2.96015 2.8125H15.0398C15.2581 2.81257 15.4717 2.8761 15.6545 2.99536C15.8372 3.11461 15.9813 3.28444 16.0693 3.48416C16.1572 3.68388 16.1852 3.90486 16.1497 4.12018C16.1144 4.33509 16.0174 4.5351 15.8706 4.69594L15.8697 4.69688L11.25 9.78067V13.758C11.2512 13.9451 11.2054 14.1296 11.1169 14.2944C11.0284 14.459 10.9002 14.5988 10.7438 14.701L8.49605 16.1972L8.49377 16.1987C8.32497 16.3098 8.12934 16.3735 7.92743 16.3829C7.72552 16.3923 7.52481 16.3472 7.34638 16.2522C7.16796 16.1573 7.01841 16.016 6.91347 15.8432C6.80853 15.6705 6.75207 15.4727 6.75002 15.2705L6.74996 15.2648L6.74999 9.7807L6.7485 9.77911L2.13028 4.69688L2.12953 4.69605C1.98265 4.53519 1.88563 4.33513 1.85026 4.12018C1.81482 3.90486 1.84278 3.68388 1.93071 3.48416C2.01865 3.28445 2.16277 3.11461 2.34552 2.99536C2.52814 2.87618 2.74147 2.81265 2.95954 2.8125M15.0397 3.9375H2.96033L2.9616 3.93889L7.57897 9.02011C7.77103 9.22739 7.8769 9.50008 7.87499 9.78268V15.2591L10.125 13.7615L10.125 13.7602L10.125 9.78268C10.1231 9.50008 10.229 9.22739 10.421 9.02011L15.0384 3.9389L15.0397 3.9375Z" fill="#ABABC2"/>
</svg>
