<svg width="16" height="46" viewBox="0 0 16 46" fill="none" xmlns="http://www.w3.org/2000/svg">
<path d="M10 9C13.3137 9 16 6.31371 16 3V9H10Z" fill="#F7F7FC"/>
<path d="M0 15C0 11.6863 2.68629 9 6 9H16V37H6C2.68629 37 0 34.3137 0 31V15Z" fill="#F7F7FC"/>
<path fill-rule="evenodd" clip-rule="evenodd" d="M9.76516 18.9848C9.91161 19.1313 9.91161 19.3687 9.76516 19.5152L6.28033 23L9.76516 26.4848C9.91161 26.6313 9.91161 26.8687 9.76516 27.0152C9.61872 27.1616 9.38128 27.1616 9.23484 27.0152L5.48483 23.2652C5.33839 23.1187 5.33839 22.8813 5.48483 22.7348L9.23484 18.9848C9.38128 18.8384 9.61872 18.8384 9.76516 18.9848Z" fill="#585874"/>
<path d="M10 37C13.3137 37 16 39.6863 16 43V37H10Z" fill="#F7F7FC"/>
</svg>
