<svg width="18" height="18" viewBox="0 0 18 18" fill="none" xmlns="http://www.w3.org/2000/svg">
<path fill-rule="evenodd" clip-rule="evenodd" d="M16.2578 0.203832C16.4706 0.142259 16.6961 0.138734 16.9108 0.193656C17.1267 0.248881 17.3238 0.361164 17.4813 0.518735C17.6389 0.676307 17.7512 0.873365 17.8064 1.08926C17.8613 1.30398 17.8578 1.52947 17.7962 1.74234L13.6967 16.2977C13.6964 16.2986 13.6962 16.2994 13.6959 16.3003C13.6278 16.5472 13.4856 16.7672 13.2884 16.9306C13.0905 17.0946 12.8468 17.1935 12.5906 17.214C12.3344 17.2345 12.0781 17.1756 11.8566 17.0451C11.6367 16.9157 11.4618 16.722 11.3552 16.4903L8.19314 9.80693L1.50977 6.64482C1.27804 6.53825 1.08441 6.36332 0.954936 6.14346C0.82451 5.92198 0.765529 5.66569 0.786025 5.40948C0.806522 5.15327 0.9055 4.90961 1.06948 4.71168C1.23286 4.51448 1.45285 4.37224 1.69968 4.30416C1.70058 4.30391 1.70149 4.30366 1.70239 4.30341L16.2578 0.203832ZM16.5916 1.40844L2.03207 5.50917L2.04076 5.5132L8.53185 8.58434L11.7534 5.36278C11.9975 5.1187 12.3932 5.1187 12.6373 5.36278C12.8814 5.60686 12.8814 6.00259 12.6373 6.24667L9.41573 9.46822L12.4869 15.9593L12.4909 15.968L12.4922 15.9634L16.5916 1.40844Z" fill="#585874"/>
</svg>
